<svg xmlns="http://www.w3.org/2000/svg" xmlns:xlink="http://www.w3.org/1999/xlink" aria-hidden="true" role="img" class="iconify iconify--logos" width="31.88" height="32" preserveAspectRatio="xMidYMid meet" viewBox="0 0 256 257"><defs><linearGradient id="IconifyId1813088fe1fbc01fb466" x1="-.828%" x2="57.636%" y1="7.652%" y2="78.411%"><stop offset="0%" stop-color="#41D1FF"></stop><stop offset="100%" stop-color="#BD34FE"></stop></linearGradient><linearGradient id="IconifyId1813088fe1fbc01fb467" x1="43.376%" x2="50.316%" y1="2.242%" y2="89.03%"><stop offset="0%" stop-color="#FFBD4F"></stop><stop offset="100%" stop-color="#FF980E"></stop></linearGradient></defs><path fill="url(#IconifyId1813088fe1fbc01fb466)" d="M255.153 37.938L134.897 252.976c-2.483 4.44-8.862 4.466-11.382.048L.875 37.958c-2.746-4.814 1.371-10.646 6.827-9.67l120.387 21.517a6.537 6.537 0 0 0 2.322-.004l117.075-21.483c5.438-.996 9.574 4.796 6.891 9.62Z"></path><path fill="url(#IconifyId1813088fe1fbc01fb467)" d="M185.432.063L7.602 31.005c-5.545.965-9.734 6.905-6.967 11.745l73.035 127.825c2.535 4.425 8.903 4.438 11.381-.014l35.952-64.477c2.71-4.882-.957-10.777-6.452-10.472l-.536.033c-3.956.219-7.243-3.168-6.585-7.077l1.253-7.442c.505-2.996 3.236-5.143 6.255-4.925l72.567 5.243c6.079.439 10.896 5.666 10.432 11.747l-3.216 42.182c-.466 6.113-5.94 10.683-12.039 10.105l-.85-.081c-5.532-.528-9.955 4.577-8.439 9.918l17.255 60.966c1.545 5.456 8.655 7.029 12.357 2.728l1.337-1.552c3.345-3.892 4.87-9.096 4.194-14.147l-13.302-99.79c-.658-4.873 3.833-8.961 8.619-7.843l.495.116c5.484 1.283 10.883-2.992 10.909-8.658l.027-5.918c.01-5.719-5.484-9.996-11.017-8.638l-1.492.367c-4.784 1.175-9.282-2.917-8.624-7.793l12.678-94.007c.667-4.947-3.95-9.11-8.796-8.267Z"></path></svg>
